<?xml version="1.0" encoding="UTF-8"?>
<svg version="1.1" xmlns="http://www.w3.org/2000/svg" width="393" height="341">
<path d="M0 0 C0.66 0 1.32 0 2 0 C2 0.66 2 1.32 2 2 C2.85207031 1.835 3.70414062 1.67 4.58203125 1.5 C8.02172508 0.99682193 11.21550909 0.93547984 14.6875 1 C19.42937629 1.08929836 19.42937629 1.08929836 24 0 C26.59509958 3.89264937 26.25422351 7.11331456 26.19873047 11.6237793 C26.19417595 12.94650848 26.19417595 12.94650848 26.18952942 14.29595947 C26.17621112 17.22222363 26.14752257 20.14808459 26.1171875 23.07421875 C26.10115793 25.11668137 26.08546677 27.15914667 26.07009888 29.20161438 C26.03505276 33.49494353 25.99168917 37.78809965 25.94335938 42.08129883 C25.88312142 47.5422684 25.84953554 53.00302683 25.82330132 58.46425152 C25.79884439 62.69161994 25.75657527 66.91868077 25.70956802 71.14585304 C25.68989541 73.15611538 25.67629592 75.16644781 25.66924667 77.17679405 C25.60210691 93.05741073 24.9433861 108.80367321 15 122 C14.41347656 122.77859375 13.82695312 123.5571875 13.22265625 124.359375 C5.10174377 134.25725607 -5.49498092 139.86098087 -18 142 C-20.17679945 142.08529699 -22.35595796 142.11775542 -24.53442383 142.11352539 C-25.83539505 142.11344986 -27.13636627 142.11337433 -28.47676086 142.11329651 C-29.88685139 142.10819062 -31.29694151 142.10297464 -32.70703125 142.09765625 C-34.15720063 142.09578979 -35.60737065 142.09436696 -37.05754089 142.09336853 C-40.86332966 142.0895613 -44.66907991 142.07974642 -48.47485352 142.06866455 C-52.36278767 142.05841177 -56.25072808 142.05386264 -60.13867188 142.04882812 C-67.75913209 142.03812246 -75.37956064 142.0210677 -83 142 C-83.0697373 129.95120816 -83.12293136 117.90246493 -83.15543652 105.85351181 C-83.17104316 100.25773705 -83.19218952 94.66210113 -83.22631836 89.06640625 C-83.25909084 83.65880228 -83.27689057 78.25133124 -83.28463173 72.84363556 C-83.29014327 70.78812825 -83.30090535 68.73262761 -83.31719017 66.67717743 C-83.46387038 47.3831285 -81.40338448 30.8280661 -67.4140625 16.25390625 C-58.88780424 8.2933059 -47.93557889 2.03047956 -35.98168945 1.81054688 C-34.81577019 1.78547058 -34.81577019 1.78547058 -33.626297 1.7598877 C-32.7970018 1.74631226 -31.9677066 1.73273682 -31.11328125 1.71875 C-30.25566696 1.70034058 -29.39805267 1.68193115 -28.51445007 1.66296387 C-24.84919576 1.58434535 -21.18376519 1.51629102 -17.51831055 1.44775391 C-14.8415373 1.39618196 -12.16492937 1.33889948 -9.48828125 1.28125 C-8.65291336 1.26767456 -7.81754547 1.25409912 -6.9568634 1.2401123 C-3.16927814 1.51923659 -3.16927814 1.51923659 0 0 Z " fill="#7FC345" transform="translate(347,14)"/>
<path d="M0 0 C7.98960079 -0.09332867 15.97896786 -0.16407939 23.96898174 -0.20724869 C27.68044696 -0.22798433 31.39153498 -0.25603909 35.1027832 -0.30175781 C38.69493544 -0.3457245 42.28672854 -0.36924205 45.87912941 -0.37950897 C47.89347318 -0.39032566 49.90767563 -0.4214672 51.92179871 -0.45318604 C67.79934317 -0.45699219 82.28080359 4.77730803 93.93359375 15.7421875 C104.87801005 27.70035881 108.18236797 41.51904136 108.11352539 57.26171875 C108.11367142 58.15046188 108.11381744 59.03920502 108.1139679 59.95487976 C108.11327631 62.8657788 108.10551951 65.77661227 108.09765625 68.6875 C108.09578939 70.71630824 108.09436675 72.74511693 108.09336853 74.77392578 C108.08956447 80.09378318 108.07975235 85.41361294 108.06866455 90.73345947 C108.0584049 96.16995876 108.05386118 101.60646255 108.04882812 107.04296875 C108.03812807 117.69532459 108.02107718 128.34765999 108 139 C104.99316019 140.00227994 102.97547526 140.13235736 99.83276367 140.14526367 C98.77703659 140.15164352 97.72130951 140.15802338 96.6335907 140.16459656 C94.91810783 140.16626579 94.91810783 140.16626579 93.16796875 140.16796875 C91.98463455 140.17129715 90.80130035 140.17462555 89.58210754 140.17805481 C87.06947213 140.18312483 84.55682997 140.18546311 82.04418945 140.18530273 C78.24093099 140.18746956 74.43797198 140.20556985 70.63476562 140.22460938 C48.15757093 140.27759847 30.86863177 139.969106 13.8046875 123.9375 C3.19332294 112.96300889 -0.35389205 99.10664574 -0.22705078 84.23583984 C-0.22734283 83.31754395 -0.22763489 82.39924805 -0.22793579 81.453125 C-0.22655638 78.45562879 -0.21106136 75.45838961 -0.1953125 72.4609375 C-0.19157742 70.36772802 -0.18873279 68.27451679 -0.18673706 66.18130493 C-0.17913956 60.7003284 -0.15952479 55.21945965 -0.1373291 49.73852539 C-0.11678662 44.13429217 -0.10771745 38.53004135 -0.09765625 32.92578125 C-0.07627493 21.95047376 -0.04218636 10.97524588 0 0 Z " fill="#80C445" transform="translate(264,188)"/>
<path d="M0 0 C0.99 0.495 0.99 0.495 2 1 C5.05143685 1.09353777 8.07982584 1.12570429 11.13134766 1.11352539 C12.57393228 1.11370619 12.57393228 1.11370619 14.04566002 1.11389065 C17.16848412 1.11314238 20.29124903 1.10551804 23.4140625 1.09765625 C25.33813447 1.09618656 27.26220684 1.09516602 29.1862793 1.09460449 C36.33252562 1.0893547 43.47876338 1.07539358 50.625 1.0625 C66.58875 1.041875 82.5525 1.02125 99 1 C99 47.53 99 94.06 99 142 C66.33 142 33.66 142 0 142 C0 95.14 0 48.28 0 0 Z " fill="#0BADD6" transform="translate(139,14)"/>
<path d="M0 0 C11.07402763 11.78848103 15.42990252 25.35550773 15.36352539 41.18505859 C15.36367142 42.10277039 15.36381744 43.02048218 15.3639679 43.96600342 C15.36327384 46.98517255 15.35550523 50.00427921 15.34765625 53.0234375 C15.34579027 55.12236497 15.34436722 57.22129288 15.34336853 59.32022095 C15.33955754 64.83409842 15.32973938 70.34794938 15.31866455 75.86181641 C15.30841992 81.49250937 15.30386437 87.12320664 15.29882812 92.75390625 C15.28811582 103.79428245 15.27105645 114.83463902 15.25 125.875 C6.99962971 125.96830042 -1.25051462 126.03906552 -9.5012846 126.08224869 C-13.33381167 126.10299027 -17.16597386 126.13105657 -20.99829102 126.17675781 C-24.70715148 126.2207024 -28.41566437 126.24423763 -32.1247654 126.25450897 C-33.52915724 126.26181435 -34.93353333 126.27607578 -36.33777428 126.29792023 C-49.70702141 126.497335 -61.10834587 124.2667044 -71.75 115.875 C-72.43707031 115.36195313 -73.12414062 114.84890625 -73.83203125 114.3203125 C-83.10044841 106.91266743 -88.68976838 96.48809149 -90.75 84.875 C-91.08165007 81.89303662 -91.22665863 78.91523677 -91.34765625 75.91796875 C-91.40680458 74.53041885 -91.40680458 74.53041885 -91.46714783 73.11483765 C-92.04450384 57.3113062 -91.85912856 41.48132474 -91.81866455 25.67010498 C-91.80827664 21.17069984 -91.80383442 16.67128877 -91.79882812 12.171875 C-91.78823074 3.40623412 -91.77125449 -5.3593785 -91.75 -14.125 C-85.20725122 -14.2955442 -78.66429416 -14.4549548 -72.12109375 -14.60717773 C-69.90228349 -14.66004481 -67.68352905 -14.71531891 -65.46484375 -14.77319336 C-17.12874222 -16.02740177 -17.12874222 -16.02740177 0 0 Z " fill="#80C445" transform="translate(96.75,30.125)"/>
<path d="M0 0 C0.92386977 0.00359811 1.84773954 0.00719622 2.79960537 0.01090336 C3.78103229 0.01078282 4.7624592 0.01066229 5.77362633 0.0105381 C8.96647207 0.0112875 12.15926023 0.01891698 15.3520956 0.0267725 C17.31689838 0.02824183 19.28170154 0.0292626 21.24650478 0.02982426 C28.55123892 0.03507813 35.8559647 0.0490392 43.16068935 0.06192875 C67.63225185 0.09286625 67.63225185 0.09286625 92.59818935 0.12442875 C92.59818935 45.99442875 92.59818935 91.86442875 92.59818935 139.12442875 C24.57159361 140.29730109 24.57159361 140.29730109 -6.40181065 140.12442875 C-7.70623552 137.515579 -7.52770022 135.6121594 -7.52879429 132.68959904 C-7.53161411 131.53555576 -7.53443394 130.38151249 -7.53733921 129.19249821 C-7.53531498 127.92020863 -7.53329075 126.64791904 -7.53120518 125.33707523 C-7.53255964 123.98866574 -7.53433982 122.64025661 -7.53651524 121.29184818 C-7.5410838 117.62465187 -7.53930249 113.9574836 -7.53613615 110.29028678 C-7.5336101 106.45904478 -7.53595073 102.62780524 -7.53752232 98.79656315 C-7.53934307 92.36295991 -7.53693993 85.92936814 -7.53218174 79.49576664 C-7.52673699 72.04763128 -7.5285037 64.59952328 -7.53400815 57.15138859 C-7.53853919 50.76582048 -7.53918994 44.38026063 -7.53656948 37.99469143 C-7.53500695 34.17674629 -7.53481231 30.35881403 -7.53810596 26.54086971 C-7.54098463 22.95321585 -7.53900908 19.36559744 -7.53321171 15.77794743 C-7.5312486 13.82557569 -7.5342379 11.87320098 -7.53733921 9.92083073 C-7.53451939 8.76960728 -7.53169956 7.61838383 -7.52879429 6.43227482 C-7.52841726 5.42550914 -7.52804024 4.41874346 -7.52765179 3.38146973 C-7.26476575 -1.3335587 -3.95903149 0.00654976 0 0 Z " fill="#0BAED7" transform="translate(145.40181064605713,187.87557125091553)"/>
<path d="M0 0 C1.37719007 0.00373793 2.75438284 0.00658121 4.13157654 0.00857544 C7.7269344 0.01615056 11.32212636 0.03574509 14.91741943 0.0579834 C18.59791826 0.07857503 22.27844434 0.08760541 25.95898438 0.09765625 C33.15892916 0.11899789 40.35873806 0.1530582 47.55859375 0.1953125 C47.6283657 12.22683352 47.68154248 24.25830573 47.71403027 36.28998852 C47.72962944 41.87788775 47.75076188 47.4656477 47.78491211 53.0534668 C47.81771158 58.45459153 47.8354899 63.85558299 47.84322548 69.2567997 C47.84873224 71.30868945 47.85948471 73.36057261 47.87578392 75.41240501 C48.01765587 94.02669442 46.7595611 110.73420409 33.37109375 125.0703125 C14.82234344 142.23106109 -8.10589613 140.37322299 -31.69458008 140.32568359 C-34.92598981 140.32023308 -38.15726586 140.32570994 -41.38867188 140.33203125 C-43.44661489 140.33137191 -45.50455782 140.33009376 -47.5625 140.328125 C-48.52691513 140.33014923 -49.49133026 140.33217346 -50.48497009 140.33425903 C-51.81390038 140.32953079 -51.81390038 140.32953079 -53.16967773 140.32470703 C-53.94891098 140.32391144 -54.72814423 140.32311584 -55.5309906 140.32229614 C-57.44140625 140.1953125 -57.44140625 140.1953125 -59.44140625 139.1953125 C-59.46506594 131.14264793 -59.48258382 123.08999898 -59.49321842 115.03730774 C-59.49833444 111.29406467 -59.50521296 107.55084613 -59.5168457 103.80761719 C-59.54743517 93.60297891 -59.52887908 83.39965149 -59.44140625 73.1953125 C-59.43557274 72.45877441 -59.42973923 71.72223633 -59.42372894 70.96337891 C-59.38602979 66.58256686 -59.32347202 62.20316857 -59.22860527 57.82321167 C-59.18896937 55.8316431 -59.16690761 53.83974855 -59.14552307 51.84790039 C-58.76846114 37.41259514 -54.10123742 25.23956281 -44.31640625 14.5078125 C-38.69845436 9.22258669 -31.00111191 3.90899781 -23.44140625 2.1953125 C-22.17176025 1.84871582 -20.90211426 1.50211914 -19.59399414 1.14501953 C-13.11155773 -0.27820994 -6.60559528 -0.05206195 0 0 Z " fill="#80C445" transform="translate(64.44140625,187.8046875)"/>
<path d="M0 0 C1.64547318 0.00666183 1.64547318 0.00666183 3.32418823 0.01345825 C4.56532379 0.01360931 5.80645935 0.01376038 7.08520508 0.01391602 C8.4446529 0.02413003 9.8040991 0.03456204 11.1635437 0.04519653 C12.55073849 0.04892619 13.93793591 0.05177339 15.32513428 0.05377197 C18.97813171 0.0614122 22.63097037 0.08106388 26.28390503 0.10317993 C30.01068982 0.12363007 33.73750024 0.1327719 37.46432495 0.14285278 C44.77819945 0.16430953 52.09194309 0.19845001 59.4057312 0.24050903 C59.47550315 12.27203006 59.52867993 24.30350226 59.56116772 36.33518505 C59.57676689 41.92308429 59.59789933 47.51084423 59.63204956 53.09866333 C59.66484903 58.49978806 59.68262735 63.90077952 59.69036293 69.30199623 C59.69586969 71.35388598 59.70662217 73.40576914 59.72292137 75.45760155 C59.86479333 94.07189096 58.60669855 110.77940062 45.2182312 125.11550903 C26.66948089 142.27625762 3.74124132 140.41841953 -19.84744263 140.37088013 C-23.07885236 140.36542962 -26.31012841 140.37090647 -29.54153442 140.37722778 C-31.59947744 140.37656845 -33.65742037 140.37529029 -35.71536255 140.37332153 C-36.67977768 140.37534576 -37.64419281 140.37737 -38.63783264 140.37945557 C-39.96676292 140.37472733 -39.96676292 140.37472733 -41.32254028 140.36990356 C-42.10177353 140.36910797 -42.88100677 140.36831238 -43.68385315 140.36749268 C-45.5942688 140.24050903 -45.5942688 140.24050903 -47.5942688 139.24050903 C-47.61792849 131.18784446 -47.63544636 123.13519551 -47.64608097 115.08250427 C-47.65119699 111.3392612 -47.65807551 107.59604266 -47.66970825 103.85281372 C-47.70029772 93.64817545 -47.68174162 83.44484803 -47.5942688 73.24050903 C-47.58843529 72.50397095 -47.58260178 71.76743286 -47.57659149 71.00857544 C-47.53889234 66.62776339 -47.47633457 62.24836511 -47.38146782 57.8684082 C-47.34183191 55.87683963 -47.31977016 53.88494508 -47.29838562 51.89309692 C-47.00331112 40.5965693 -44.66018991 28.75812173 -36.5942688 20.24050903 C-35.6042688 20.24050903 -34.6142688 20.24050903 -33.5942688 20.24050903 C-33.98098755 20.76257935 -34.3677063 21.28464966 -34.7661438 21.82254028 C-35.28692505 22.55859497 -35.8077063 23.29464966 -36.3442688 24.05300903 C-36.85473755 24.76070435 -37.3652063 25.46839966 -37.8911438 26.19754028 C-44.51032647 38.02401575 -44.1983878 49.31494168 -44.2036438 62.53347778 C-44.21864267 64.69253265 -44.23537338 66.85157613 -44.25375366 69.01060486 C-44.29724744 74.66085367 -44.31738638 80.31094773 -44.33248901 85.96133423 C-44.35212507 91.74003176 -44.39408766 97.51856375 -44.43411255 103.29714966 C-44.5092199 114.6115515 -44.55962912 125.92591594 -44.5942688 137.24050903 C-36.43937639 137.20226506 -28.28502597 137.14263586 -20.13051128 137.05660629 C-16.34294228 137.01730037 -12.55559987 136.98503018 -8.76785278 136.96951294 C-5.104123 136.95423363 -1.44101694 136.91959317 2.22243309 136.87220001 C3.61162036 136.85750115 5.00089674 136.84947471 6.39016151 136.84862518 C19.85387503 136.83213071 30.76289669 133.70640012 41.4057312 125.24050903 C51.24175511 115.1239274 55.69074385 104.40869133 55.72457886 90.44973755 C55.73462448 89.49286545 55.7446701 88.53599335 55.75502014 87.55012512 C55.78576031 84.40656094 55.80286184 81.26308158 55.8197937 78.11941528 C55.83851271 75.93222834 55.85808667 73.74504857 55.878479 71.55787659 C55.92972866 65.81555411 55.9693928 60.07320824 56.00662231 54.33078003 C56.05376084 47.43316011 56.11532797 40.53565563 56.17446899 33.63813019 C56.26259384 23.17230325 56.33242105 12.70649746 56.4057312 2.24050903 C36.2757312 2.24050903 16.1457312 2.24050903 -4.5942688 2.24050903 C-2.5942688 0.24050903 -2.5942688 0.24050903 0 0 Z " fill="#6DB037" transform="translate(52.594268798828125,187.75949096679688)"/>
<path d="M0 0 C9.33817473 1.44302167 17.18446503 7.79694112 23 15 C30.90884946 26.64093705 34.17204313 37.35480705 34.11352539 51.31005859 C34.11367142 52.22777039 34.11381744 53.14548218 34.1139679 54.09100342 C34.11327384 57.11017255 34.10550523 60.12927921 34.09765625 63.1484375 C34.09579027 65.24736497 34.09436722 67.34629288 34.09336853 69.44522095 C34.08955754 74.95909842 34.07973938 80.47294938 34.06866455 85.98681641 C34.05661748 92.60817416 34.05204144 99.22954079 34.04621124 105.85090637 C34.03652686 115.90062266 34.01736036 125.95028084 34 136 C12.55 136 -8.9 136 -31 136 C-31.33 135.34 -31.66 134.68 -32 134 C-11.21 134 9.58 134 31 134 C30.90910772 117.00377989 30.90910772 117.00377989 30.79101562 100.0078125 C30.73678661 93.07098457 30.68567268 86.13423581 30.65356445 79.19726562 C30.62746346 73.60150829 30.58701284 68.0060183 30.53681374 62.41042709 C30.52019096 60.28075371 30.50864822 58.15103413 30.50238609 56.02130508 C30.49269505 53.0271051 30.464576 50.03358209 30.43237305 47.03955078 C30.43380814 46.1684819 30.43524323 45.29741302 30.4367218 44.39994812 C30.31270245 36.19091312 28.40996504 28.55642893 24 21.5625 C23.505 20.75941406 23.01 19.95632812 22.5 19.12890625 C21.08216851 16.98187781 21.08216851 16.98187781 19.3125 15.33984375 C18 14 18 14 18 12 C17.43152344 11.73058594 16.86304688 11.46117187 16.27734375 11.18359375 C13.91095496 9.95372102 11.76605501 8.56336156 9.5625 7.0625 C7.04805487 5.36130775 4.55182312 3.73475246 1.9375 2.1875 C1.298125 1.795625 0.65875 1.40375 0 1 C0 0.67 0 0.34 0 0 Z " fill="#6DB23B" transform="translate(78,20)"/>
<path d="M0 0 C11.259116 0.19083247 20.97254013 6.12912537 29.00390625 13.77734375 C39.83542727 25.8382742 43.18250254 39.48826846 43.11352539 55.26171875 C43.11367142 56.15046188 43.11381744 57.03920502 43.1139679 57.95487976 C43.11327631 60.8657788 43.10551951 63.77661227 43.09765625 66.6875 C43.09578939 68.71630824 43.09436675 70.74511693 43.09336853 72.77392578 C43.08956447 78.09378318 43.07975235 83.41361294 43.06866455 88.73345947 C43.0584049 94.16995876 43.05386118 99.60646255 43.04882812 105.04296875 C43.03812807 115.69532459 43.02107718 126.34765999 43 137 C39.97010675 138.00996442 37.9377536 138.12671352 34.76928711 138.12939453 C33.16633034 138.13412277 33.16633034 138.13412277 31.5309906 138.13894653 C29.79668541 138.13591019 29.79668541 138.13591019 28.02734375 138.1328125 C26.23811241 138.13424759 26.23811241 138.13424759 24.41273499 138.13571167 C21.88331042 138.13639297 19.35388411 138.13454214 16.82446289 138.13037109 C12.97733553 138.12505505 9.13032668 138.13030071 5.28320312 138.13671875 C2.82291641 138.13605732 0.36262977 138.1347748 -2.09765625 138.1328125 C-3.23969009 138.13483673 -4.38172394 138.13686096 -5.55836487 138.13894653 C-12.10027703 138.12004023 -18.50592775 137.80180787 -25 137 C-25 136.34 -25 135.68 -25 135 C-3.22 135 18.56 135 41 135 C40.90901418 119.11900668 40.90901418 119.11900668 40.79101562 103.23828125 C40.73685014 96.75376609 40.68573423 90.26933443 40.65356445 83.78466797 C40.62740545 78.55198865 40.58691517 73.31959244 40.53681374 68.08708954 C40.5202298 66.09862562 40.5086631 64.11011283 40.50238609 62.12158966 C40.44134839 44.55011291 38.97818788 28.32000779 26.5625 14.6875 C19.1164022 7.67076747 9.63002313 4.07215462 0 1 C0 0.67 0 0.34 0 0 Z " fill="#7EBB44" transform="translate(329,190)"/>
<path d="M0 0 C0.66 0 1.32 0 2 0 C2 0.66 2 1.32 2 2 C2.85207031 1.835 3.70414062 1.67 4.58203125 1.5 C8.02172508 0.99682193 11.21550909 0.93547984 14.6875 1 C19.42937629 1.08929836 19.42937629 1.08929836 24 0 C26.60342372 3.90513558 26.24669235 7.1468841 26.18286133 11.67138672 C26.17821869 12.55802505 26.17357605 13.44466339 26.16879272 14.35816956 C26.15036867 17.29886093 26.11682312 20.23914726 26.08203125 23.1796875 C26.06346475 25.22933535 26.0453799 27.27898762 26.02775574 29.3286438 C25.9881981 33.63456269 25.9408365 37.94031283 25.88842773 42.24609375 C25.82251401 47.73421974 25.77863696 53.22226112 25.74116993 58.71064568 C25.70922117 62.95072122 25.6638239 67.19057669 25.61469078 71.43048477 C25.59313123 73.45160825 25.57598308 75.4727842 25.56351662 77.49398422 C25.41078367 100.03178121 25.41078367 100.03178121 22 109 C21.01 109.495 21.01 109.495 20 110 C20.13957123 109.31484818 20.27914246 108.62969635 20.42294312 107.92378235 C22.38662716 97.02447156 22.35102104 86.21106326 22.4140625 75.16796875 C22.43280616 73.07903811 22.45238187 70.99011479 22.4727478 68.90119934 C22.52373744 63.445021 22.56353918 57.9888182 22.60089111 52.53253174 C22.64114047 46.94806026 22.69213656 41.36368759 22.7421875 35.77929688 C22.83855327 24.85293433 22.92308205 13.92651556 23 3 C22.34 3.33 21.68 3.66 21 4 C19.02893455 4.0913666 17.05472084 4.11751968 15.08154297 4.11352539 C13.84040741 4.11344986 12.59927185 4.11337433 11.32052612 4.11329651 C9.96107951 4.1081895 8.60163331 4.1029735 7.2421875 4.09765625 C5.85499116 4.09579142 4.46779416 4.09436782 3.08059692 4.09336853 C-0.57234512 4.08954848 -4.22524748 4.07972255 -7.87817383 4.06866455 C-11.60497501 4.05843944 -15.33178259 4.05386855 -19.05859375 4.04882812 C-26.37241394 4.03809983 -33.68620141 4.02102954 -41 4 C-40.67 3.34 -40.34 2.68 -40 2 C-38.82381104 1.97494385 -37.64762207 1.9498877 -36.43579102 1.92407227 C-32.08785378 1.83017194 -27.74008284 1.72990952 -23.39233398 1.62768555 C-21.50760782 1.58427067 -19.62284064 1.54260057 -17.73803711 1.50268555 C-15.03486751 1.44514107 -12.33190564 1.38140196 -9.62890625 1.31640625 C-8.78099014 1.29969376 -7.93307404 1.28298126 -7.0594635 1.26576233 C-3.21707924 1.53590805 -3.21707924 1.53590805 0 0 Z " fill="#6CAB35" transform="translate(347,14)"/>
<path d="M0 0 C0.33 0 0.66 0 1 0 C1 45.54 1 91.08 1 138 C-68.71299127 139.22303493 -68.71299127 139.22303493 -83.4375 138.5 C-84.46681641 138.45230469 -85.49613281 138.40460938 -86.55664062 138.35546875 C-89.03792317 138.24006026 -91.51901338 138.12157578 -94 138 C-94.33 137.34 -94.66 136.68 -95 136 C-63.98 136 -32.96 136 -1 136 C-0.67 91.12 -0.34 46.24 0 0 Z " fill="#098FBB" transform="translate(236,189)"/>
<path d="M0 0 C20.79 0 41.58 0 63 0 C63.495 0.99 63.495 0.99 64 2 C43.54 2 23.08 2 2 2 C2 32.69 2 63.38 2 95 C1.34 94.67 0.68 94.34 0 94 C0 62.98 0 31.96 0 0 Z " fill="#69AA3A" transform="translate(264,188)"/>
<path d="M0 0 C15.84 0 31.68 0 48 0 C48 0.33 48 0.66 48 1 C32.82 1 17.64 1 2 1 C2.33 2.65 2.66 4.3 3 6 C3.08185439 7.37545381 3.12211904 8.75402623 3.12025452 10.13191223 C3.12162918 10.92130188 3.12300385 11.71069153 3.12442017 12.52400208 C3.12082489 13.37564438 3.11722961 14.22728668 3.11352539 15.10473633 C3.11367142 16.01254852 3.11381744 16.92036072 3.1139679 17.85568237 C3.11327281 20.84782321 3.10549931 23.83990132 3.09765625 26.83203125 C3.09579064 28.90996771 3.09436741 30.98790462 3.09336853 33.06584167 C3.08955465 38.52877013 3.07973399 43.99167191 3.06866455 49.45458984 C3.05842616 55.03157185 3.05386571 60.60855818 3.04882812 66.18554688 C3.03811072 77.12370963 3.02104784 88.06185259 3 99 C2.34 99 1.68 99 1 99 C-0.25250329 79.27342616 -0.1192231 59.55074388 -0.06866455 39.79510498 C-0.05643751 34.49910207 -0.05201049 29.20308708 -0.04621124 23.90707397 C-0.03664416 15.93802505 -0.01743351 7.969053 0 0 Z " fill="#65A32E" transform="translate(5,16)"/>
<path d="M0 0 C11.259116 0.19083247 20.97254013 6.12912537 29.00390625 13.77734375 C32.63309135 17.81845201 35.56546533 22.14870099 38 27 C38.50393532 27.95398682 38.50393532 27.95398682 39.01805115 28.92724609 C43.49911802 38.94822733 42.49898636 49.77636003 42.390625 60.51171875 C42.383154 62.69317605 42.37746513 64.87464012 42.37347412 67.05610657 C42.35828553 72.76572575 42.31906253 78.47493048 42.2746582 84.18438721 C42.23355874 90.02325842 42.21543188 95.86219735 42.1953125 101.70117188 C42.15256137 113.13429552 42.08439285 124.56711314 42 136 C41.67 136 41.34 136 41 136 C40.99413376 134.87406433 40.98826752 133.74812866 40.98222351 132.58807373 C40.92481893 121.93718548 40.85196562 111.28649792 40.76428509 100.63581467 C40.71970436 95.16119633 40.6804215 89.68665031 40.65356445 84.21191406 C40.62740836 78.92088167 40.58692004 73.63012941 40.53681374 68.33927155 C40.52022786 66.32847855 40.50866236 64.31763719 40.50238609 62.30678558 C40.4418041 44.66881975 39.03021581 28.3771348 26.5625 14.6875 C19.1164022 7.67076747 9.63002313 4.07215462 0 1 C0 0.67 0 0.34 0 0 Z " fill="#5EA12A" transform="translate(329,190)"/>
<path d="M0 0 C-2.3364192 2.3364192 -3.93032234 2.71392579 -7.0625 3.6875 C-17.72418443 7.48233683 -27.2282279 15.99790241 -32.60546875 25.98046875 C-33.44980401 27.8548435 -34.26148482 29.74455896 -35.02734375 31.65234375 C-36 34 -36 34 -38 37 C-37.81636003 27.45072166 -32.68522932 19.52078474 -26.25 12.6875 C-19.0192348 5.93596681 -10.18456546 -0.47370072 0 0 Z " fill="#6BAB36" transform="translate(305,18)"/>
<path d="M0 0 C0.33 0 0.66 0 1 0 C1 14.85 1 29.7 1 45 C0.34 45 -0.32 45 -1 45 C-1.75573446 30.98675352 -2.13698472 17.03332368 -2 3 C-1.34 3 -0.68 3 0 3 C0 2.01 0 1.02 0 0 Z " fill="#6FAC34" transform="translate(7,70)"/>
<path d="M0 0 C1.55792051 3.03086354 2.9079406 6.11852806 4.25 9.25 C10.40069924 22.73491496 19.68032524 29.93954798 33 36 C33 36.33 33 36.66 33 37 C26.29087419 36.71450528 22.26548589 34.01049962 17 30 C16.30519531 29.48308594 15.61039063 28.96617187 14.89453125 28.43359375 C8.01699294 22.91293921 2.83200677 15.37348155 0 7 C-0.07646165 4.6679198 -0.09143299 2.33154122 0 0 Z " fill="#68A732" transform="translate(8,116)"/>
<path d="M0 0 C9.34581536 1.44420237 17.17290467 7.800407 23 15 C27.472054 21.43074432 30.84739601 27.06459257 31 35 C29.08396144 32.12594215 27.67186862 29.30114921 26.1875 26.1875 C23.88037829 21.49956473 21.46310506 17.87052918 18 14 C18 13.34 18 12.68 18 12 C17.43152344 11.73058594 16.86304687 11.46117187 16.27734375 11.18359375 C13.91095496 9.95372102 11.76605501 8.56336156 9.5625 7.0625 C7.04805487 5.36130775 4.55182312 3.73475246 1.9375 2.1875 C1.298125 1.795625 0.65875 1.40375 0 1 C0 0.67 0 0.34 0 0 Z " fill="#6AAC38" transform="translate(78,20)"/>
<path d="M0 0 C5 5 5 5 7.25 7.375 C14.2568717 14.06337753 20.6702138 18.19234471 30 21 C30 21.33 30 21.66 30 22 C20.04566054 21.83681411 13.01962214 17.16921952 6 10.3125 C0 3.88084532 0 3.88084532 0 0 Z " fill="#69AA36" transform="translate(273,303)"/>
<path d="M0 0 C0.33 0 0.66 0 1 0 C1 9.9 1 19.8 1 30 C0.01 29.34 -0.98 28.68 -2 28 C-2.37231445 25.63330078 -2.37231445 25.63330078 -2.36328125 22.6953125 C-2.36231445 21.10783203 -2.36231445 21.10783203 -2.36132812 19.48828125 C-2.34521484 18.37839844 -2.32910156 17.26851563 -2.3125 16.125 C-2.31572266 15.02285156 -2.31894531 13.92070312 -2.32226562 12.78515625 C-2.26227615 3.8085495 -2.26227615 3.8085495 0 0 Z " fill="#6BA63A" transform="translate(7,295)"/>
<path d="M0 0 C2.97 0.495 2.97 0.495 6 1 C3.83669696 3.16330304 2.00130683 4.06604493 -0.75 5.375 C-5.7364937 7.82513595 -10.28949566 10.28949566 -14.25 14.25 C-14.8275 14.8275 -15.405 15.405 -16 16 C-16.66 16 -17.32 16 -18 16 C-14.97677926 8.70588013 -6.69703408 4.56225217 0 1 C0 0.67 0 0.34 0 0 Z " fill="#71AF36" transform="translate(37,190)"/>
<path d="M0 0 C0.734375 1.65234375 0.734375 1.65234375 1 4 C-0.546875 6.69140625 -0.546875 6.69140625 -2.75 9.5625 C-3.46671875 10.51253906 -4.1834375 11.46257812 -4.921875 12.44140625 C-6.53795066 14.43112346 -8.13638795 16.24844057 -10 18 C-10.99 17.67 -11.98 17.34 -13 17 C-12.34644531 16.41605469 -12.34644531 16.41605469 -11.6796875 15.8203125 C-6.66476834 11.10932783 -3.30242277 6.01210299 0 0 Z " fill="#69A633" transform="translate(365,126)"/>
<path d="M0 0 C1.16144531 0.00902344 2.32289063 0.01804687 3.51953125 0.02734375 C4.39996094 0.03894531 5.28039062 0.05054688 6.1875 0.0625 C6.5175 1.0525 6.8475 2.0425 7.1875 3.0625 C0.77061325 3.16599817 -5.43944402 2.80757544 -11.8125 2.0625 C-11.8125 1.7325 -11.8125 1.4025 -11.8125 1.0625 C-7.81454108 0.10630267 -4.10446078 -0.0414592 0 0 Z " fill="#6BAB2A" transform="translate(363.8125,324.9375)"/>
<path d="M0 0 C3.78239671 0.65690619 7.21841526 1.720131 10.8125 3.0625 C11.78832031 3.42472656 12.76414062 3.78695313 13.76953125 4.16015625 C14.50558594 4.43730469 15.24164063 4.71445312 16 5 C16 5.33 16 5.66 16 6 C9.58076669 5.70887831 5.37899794 4.54784971 0 1 C0 0.67 0 0.34 0 0 Z " fill="#74B132" transform="translate(287,319)"/>
<path d="M0 0 C0.33 0 0.66 0 1 0 C1.66 4.29 2.32 8.58 3 13 C2.34 13 1.68 13 1 13 C-0.58593284 8.8369263 -1.31121486 5.46074638 -1 1 C-0.67 0.67 -0.34 0.34 0 0 Z " fill="#70AB33" transform="translate(266,282)"/>
<path d="M0 0 C0.99 0 1.98 0 3 0 C4.60546875 1.75 4.60546875 1.75 6.1875 4 C6.71730469 4.7425 7.24710938 5.485 7.79296875 6.25 C8.19128906 6.8275 8.58960938 7.405 9 8 C8.01 8 7.02 8 6 8 C4.39453125 6.25 4.39453125 6.25 2.8125 4 C2.28269531 3.2575 1.75289062 2.515 1.20703125 1.75 C0.80871094 1.1725 0.41039062 0.595 0 0 Z " fill="#6FB03A" transform="translate(14,134)"/>
<path d="M0 0 C0.33 0 0.66 0 1 0 C1.125 7.75 1.125 7.75 0 10 C-0.66 9.67 -1.32 9.34 -2 9 C-2 7.02 -2 5.04 -2 3 C-1.34 3 -0.68 3 0 3 C0 2.01 0 1.02 0 0 Z " fill="#82B72F" transform="translate(7,70)"/>
<path d="M0 0 C0.804375 0.495 0.804375 0.495 1.625 1 C4.5391061 2.22699204 6.86867708 2.14233286 10 2 C9.67 2.66 9.34 3.32 9 4 C1.25 4.125 1.25 4.125 -1 3 C-0.67 2.01 -0.34 1.02 0 0 Z " fill="#83AD33" transform="translate(6,324)"/>
<path d="M0 0 C2.09350689 3.4019487 2.17942163 6.05272412 2 10 C1.34 10 0.68 10 0 10 C-1.125 3.375 -1.125 3.375 0 0 Z " fill="#6DB03F" transform="translate(109,52)"/>
<path d="M0 0 C1.98 0 3.96 0 6 0 C6 0.33 6 0.66 6 1 C4.02 1 2.04 1 0 1 C0 0.67 0 0.34 0 0 Z " fill="#C6E62E" transform="translate(56,157)"/>
<path d="M0 0 C1.65 0 3.3 0 5 0 C5 0.33 5 0.66 5 1 C3.35 1 1.7 1 0 1 C0 0.67 0 0.34 0 0 Z " fill="#B7CE30" transform="translate(312,14)"/>
<path d="M0 0 C0.66 0 1.32 0 2 0 C1.67 0.99 1.34 1.98 1 3 C0.67 2.01 0.34 1.02 0 0 Z " fill="#E9E915" transform="translate(370,215)"/>
<path d="M0 0 C4 1 4 1 4 1 Z " fill="#00CAFF" transform="translate(195,157)"/>
<path d="M0 0 C1 4 1 4 1 4 Z " fill="#CACA35" transform="translate(370,120)"/>
<path d="M0 0 C1 4 1 4 1 4 Z " fill="#9FDF20" transform="translate(371,116)"/>
<path d="" fill="#47B847" transform="translate(0,0)"/>
<path d="M0 0 C3 1 3 1 3 1 Z " fill="#0080FF" transform="translate(168,186)"/>
<path d="M0 0 C3 1 3 1 3 1 Z " fill="#AAFF55" transform="translate(72,186)"/>
<path d="M0 0 C3 1 3 1 3 1 Z " fill="#80FF80" transform="translate(289,157)"/>
<path d="M0 0 C3 1 3 1 3 1 Z " fill="#26AED8" transform="translate(234,157)"/>
<path d="M0 0 C3 1 3 1 3 1 Z " fill="#15B8D4" transform="translate(173,157)"/>
<path d="" fill="#D4D42A" transform="translate(0,0)"/>
<path d="M0 0 C2 1 2 1 2 1 Z " fill="#00FF00" transform="translate(368,329)"/>
<path d="M0 0 C2 1 2 1 2 1 Z " fill="#808080" transform="translate(6,329)"/>
<path d="" fill="#40BF40" transform="translate(0,0)"/>
<path d="" fill="#00FFFF" transform="translate(0,0)"/>
<path d="" fill="#40BFBF" transform="translate(0,0)"/>
<path d="" fill="#40BFBF" transform="translate(0,0)"/>
<path d="" fill="#BFBF40" transform="translate(0,0)"/>
<path d="" fill="#95956A" transform="translate(0,0)"/>
<path d="M0 0 C2 1 2 1 2 1 Z " fill="#FFFF00" transform="translate(369,219)"/>
<path d="M0 0 C2 1 2 1 2 1 Z " fill="#BFBF40" transform="translate(368,217)"/>
<path d="" fill="#40BFBF" transform="translate(0,0)"/>
<path d="M0 0 C2 1 2 1 2 1 Z " fill="#FFFF00" transform="translate(46,187)"/>
<path d="M0 0 C2 1 2 1 2 1 Z " fill="#BFFF40" transform="translate(297,186)"/>
<path d="M0 0 C2 1 2 1 2 1 Z " fill="#FFFF00" transform="translate(99,186)"/>
<path d="M0 0 C2 1 2 1 2 1 Z " fill="#95D46A" transform="translate(81,186)"/>
<path d="M0 0 C2 1 2 1 2 1 Z " fill="#BFFF40" transform="translate(317,157)"/>
<path d="M0 0 C2 1 2 1 2 1 Z " fill="#BFFF40" transform="translate(314,157)"/>
<path d="M0 0 C2 1 2 1 2 1 Z " fill="#D4D42A" transform="translate(309,157)"/>
<path d="M0 0 C2 1 2 1 2 1 Z " fill="#80FF80" transform="translate(285,157)"/>
<path d="M0 0 C2 1 2 1 2 1 Z " fill="#BFFF40" transform="translate(282,157)"/>
<path d="M0 0 C2 1 2 1 2 1 Z " fill="#00BFFF" transform="translate(230,157)"/>
<path d="M0 0 C2 1 2 1 2 1 Z " fill="#00D4D4" transform="translate(221,157)"/>
<path d="M0 0 C2 1 2 1 2 1 Z " fill="#00AAAA" transform="translate(218,157)"/>
<path d="M0 0 C2 1 2 1 2 1 Z " fill="#0080FF" transform="translate(213,157)"/>
<path d="M0 0 C2 1 2 1 2 1 Z " fill="#00AAFF" transform="translate(209,157)"/>
<path d="M0 0 C2 1 2 1 2 1 Z " fill="#0095FF" transform="translate(205,157)"/>
<path d="M0 0 C2 1 2 1 2 1 Z " fill="#009FDF" transform="translate(189,157)"/>
<path d="M0 0 C2 1 2 1 2 1 Z " fill="#00DFDF" transform="translate(179,157)"/>
<path d="M0 0 C2 1 2 1 2 1 Z " fill="#00FFFF" transform="translate(165,157)"/>
<path d="M0 0 C2 1 2 1 2 1 Z " fill="#00BFFF" transform="translate(157,157)"/>
<path d="M0 0 C2 1 2 1 2 1 Z " fill="#19E5E5" transform="translate(140,157)"/>
<path d="M0 0 C2 1 2 1 2 1 Z " fill="#80FF80" transform="translate(74,157)"/>
<path d="M0 0 C2 1 2 1 2 1 Z " fill="#FFFF00" transform="translate(71,157)"/>
<path d="M0 0 C2 1 2 1 2 1 Z " fill="#FFFF00" transform="translate(63,157)"/>
<path d="M0 0 C2 1 2 1 2 1 Z " fill="#BFFF40" transform="translate(52,157)"/>
<path d="" fill="#00FFFF" transform="translate(0,0)"/>
<path d="" fill="#40BFBF" transform="translate(0,0)"/>
<path d="" fill="#BFBF40" transform="translate(0,0)"/>
<path d="" fill="#FFFF00" transform="translate(0,0)"/>
<path d="" fill="#00FFFF" transform="translate(0,0)"/>
<path d="" fill="#00FF00" transform="translate(0,0)"/>
<path d="" fill="#40BFBF" transform="translate(0,0)"/>
<path d="" fill="#00FF00" transform="translate(0,0)"/>
<path d="" fill="#00FFFF" transform="translate(0,0)"/>
<path d="M0 0 C2 1 2 1 2 1 Z " fill="#FFFF00" transform="translate(343,14)"/>
<path d="M0 0 C2 1 2 1 2 1 Z " fill="#2AD4D4" transform="translate(234,14)"/>
<path d="M0 0 C2 1 2 1 2 1 Z " fill="#00FFFF" transform="translate(230,14)"/>
<path d="M0 0 C2 1 2 1 2 1 Z " fill="#209F9F" transform="translate(226,14)"/>
<path d="M0 0 C2 1 2 1 2 1 Z " fill="#2A9595" transform="translate(218,14)"/>
<path d="M0 0 C2 1 2 1 2 1 Z " fill="#00BFBF" transform="translate(202,14)"/>
<path d="M0 0 C2 1 2 1 2 1 Z " fill="#00FFFF" transform="translate(191,14)"/>
<path d="M0 0 C2 1 2 1 2 1 Z " fill="#00FFFF" transform="translate(182,14)"/>
<path d="M0 0 C2 1 2 1 2 1 Z " fill="#20DFDF" transform="translate(178,14)"/>
<path d="M0 0 C2 1 2 1 2 1 Z " fill="#2AD4D4" transform="translate(168,14)"/>
<path d="M0 0 C2 1 2 1 2 1 Z " fill="#BFBF40" transform="translate(66,14)"/>
<path d="M0 0 C2 1 2 1 2 1 Z " fill="#D4D42A" transform="translate(34,14)"/>
<path d="M0 0 C2 1 2 1 2 1 Z " fill="#6A956A" transform="translate(7,14)"/>
<path d="" fill="#00FF00" transform="translate(0,0)"/>
<path d="" fill="#00FF00" transform="translate(0,0)"/>
<path d="" fill="#00FFFF" transform="translate(0,0)"/>
<path d="" fill="#80BF40" transform="translate(0,0)"/>
<path d="" fill="#00FFFF" transform="translate(0,0)"/>
<path d="" fill="#00FFFF" transform="translate(0,0)"/>
<path d="" fill="#00FFFF" transform="translate(0,0)"/>
<path d="" fill="#FFFF00" transform="translate(0,0)"/>
<path d="" fill="#00FF00" transform="translate(0,0)"/>
<path d="" fill="#AAAA55" transform="translate(0,0)"/>
<path d="" fill="#00FFFF" transform="translate(0,0)"/>
<path d="" fill="#00FF00" transform="translate(0,0)"/>
<path d="" fill="#00FF00" transform="translate(0,0)"/>
<path d="" fill="#00FFFF" transform="translate(0,0)"/>
<path d="" fill="#808080" transform="translate(0,0)"/>
<path d="" fill="#00FF00" transform="translate(0,0)"/>
<path d="" fill="#00FFFF" transform="translate(0,0)"/>
<path d="" fill="#00FF00" transform="translate(0,0)"/>
<path d="" fill="#00FFFF" transform="translate(0,0)"/>
<path d="" fill="#808080" transform="translate(0,0)"/>
<path d="" fill="#808080" transform="translate(0,0)"/>
<path d="" fill="#00FF00" transform="translate(0,0)"/>
<path d="" fill="#00FF00" transform="translate(0,0)"/>
<path d="" fill="#00FF00" transform="translate(0,0)"/>
<path d="" fill="#808080" transform="translate(0,0)"/>
<path d="" fill="#00FFFF" transform="translate(0,0)"/>
<path d="" fill="#808080" transform="translate(0,0)"/>
<path d="" fill="#00FF00" transform="translate(0,0)"/>
<path d="" fill="#00FF00" transform="translate(0,0)"/>
<path d="" fill="#00FF00" transform="translate(0,0)"/>
<path d="" fill="#00FF00" transform="translate(0,0)"/>
<path d="" fill="#00FFFF" transform="translate(0,0)"/>
<path d="" fill="#00FF00" transform="translate(0,0)"/>
<path d="" fill="#00FF00" transform="translate(0,0)"/>
<path d="" fill="#808080" transform="translate(0,0)"/>
<path d="" fill="#00FFFF" transform="translate(0,0)"/>
<path d="" fill="#808080" transform="translate(0,0)"/>
<path d="" fill="#AAAA55" transform="translate(0,0)"/>
<path d="" fill="#808080" transform="translate(0,0)"/>
<path d="" fill="#00FF00" transform="translate(0,0)"/>
<path d="" fill="#00FFFF" transform="translate(0,0)"/>
<path d="" fill="#FFFF00" transform="translate(0,0)"/>
<path d="" fill="#AAAA55" transform="translate(0,0)"/>
<path d="" fill="#FFFF00" transform="translate(0,0)"/>
<path d="" fill="#FFFF00" transform="translate(0,0)"/>
<path d="" fill="#808080" transform="translate(0,0)"/>
<path d="" fill="#FFFF00" transform="translate(0,0)"/>
<path d="" fill="#808080" transform="translate(0,0)"/>
<path d="" fill="#00FFFF" transform="translate(0,0)"/>
<path d="" fill="#808080" transform="translate(0,0)"/>
<path d="" fill="#808080" transform="translate(0,0)"/>
<path d="" fill="#FFFF00" transform="translate(0,0)"/>
<path d="" fill="#00FF00" transform="translate(0,0)"/>
<path d="" fill="#808080" transform="translate(0,0)"/>
<path d="" fill="#80FF80" transform="translate(0,0)"/>
<path d="" fill="#00FF00" transform="translate(0,0)"/>
<path d="" fill="#808080" transform="translate(0,0)"/>
<path d="" fill="#FFFF00" transform="translate(0,0)"/>
<path d="" fill="#FFFF00" transform="translate(0,0)"/>
<path d="" fill="#80FF80" transform="translate(0,0)"/>
<path d="" fill="#FFFF00" transform="translate(0,0)"/>
<path d="" fill="#00FF00" transform="translate(0,0)"/>
<path d="" fill="#00FF00" transform="translate(0,0)"/>
<path d="" fill="#00FFFF" transform="translate(0,0)"/>
<path d="" fill="#FFFF00" transform="translate(0,0)"/>
<path d="" fill="#80FF80" transform="translate(0,0)"/>
<path d="" fill="#FFFF00" transform="translate(0,0)"/>
<path d="" fill="#FFFF00" transform="translate(0,0)"/>
<path d="" fill="#80FF80" transform="translate(0,0)"/>
<path d="" fill="#80FF80" transform="translate(0,0)"/>
<path d="" fill="#00FF00" transform="translate(0,0)"/>
<path d="" fill="#FFFF00" transform="translate(0,0)"/>
<path d="" fill="#AAAA55" transform="translate(0,0)"/>
<path d="" fill="#FFFF00" transform="translate(0,0)"/>
<path d="" fill="#FFFF00" transform="translate(0,0)"/>
<path d="" fill="#FFFF00" transform="translate(0,0)"/>
<path d="" fill="#008080" transform="translate(0,0)"/>
<path d="" fill="#00FF00" transform="translate(0,0)"/>
<path d="" fill="#00FF00" transform="translate(0,0)"/>
<path d="" fill="#00FF00" transform="translate(0,0)"/>
<path d="" fill="#FFFF00" transform="translate(0,0)"/>
<path d="" fill="#00FF00" transform="translate(0,0)"/>
<path d="" fill="#FFFF00" transform="translate(0,0)"/>
<path d="" fill="#FFFF00" transform="translate(0,0)"/>
<path d="" fill="#FFFF00" transform="translate(0,0)"/>
<path d="" fill="#FFFF00" transform="translate(0,0)"/>
<path d="" fill="#FFFF00" transform="translate(0,0)"/>
<path d="" fill="#FFFF00" transform="translate(0,0)"/>
<path d="" fill="#FFFF00" transform="translate(0,0)"/>
<path d="" fill="#00FFFF" transform="translate(0,0)"/>
<path d="" fill="#0080FF" transform="translate(0,0)"/>
<path d="" fill="#00FFFF" transform="translate(0,0)"/>
<path d="" fill="#0080FF" transform="translate(0,0)"/>
<path d="" fill="#00FFFF" transform="translate(0,0)"/>
<path d="" fill="#00FFFF" transform="translate(0,0)"/>
<path d="" fill="#00FFFF" transform="translate(0,0)"/>
<path d="" fill="#00FFFF" transform="translate(0,0)"/>
<path d="" fill="#0080FF" transform="translate(0,0)"/>
<path d="" fill="#55AA55" transform="translate(0,0)"/>
<path d="" fill="#FFFF00" transform="translate(0,0)"/>
<path d="" fill="#FFFF00" transform="translate(0,0)"/>
<path d="" fill="#FFFF00" transform="translate(0,0)"/>
<path d="" fill="#AAAA55" transform="translate(0,0)"/>
<path d="" fill="#FFFF00" transform="translate(0,0)"/>
<path d="" fill="#808080" transform="translate(0,0)"/>
<path d="" fill="#AAAA55" transform="translate(0,0)"/>
<path d="" fill="#808080" transform="translate(0,0)"/>
<path d="" fill="#808080" transform="translate(0,0)"/>
<path d="" fill="#FFFF00" transform="translate(0,0)"/>
<path d="" fill="#00FF00" transform="translate(0,0)"/>
<path d="" fill="#808080" transform="translate(0,0)"/>
<path d="" fill="#FFFF00" transform="translate(0,0)"/>
<path d="" fill="#00FF00" transform="translate(0,0)"/>
<path d="" fill="#808080" transform="translate(0,0)"/>
<path d="" fill="#808080" transform="translate(0,0)"/>
<path d="" fill="#00FFFF" transform="translate(0,0)"/>
<path d="" fill="#FFFF00" transform="translate(0,0)"/>
<path d="" fill="#FFFF00" transform="translate(0,0)"/>
<path d="" fill="#FFFF00" transform="translate(0,0)"/>
<path d="" fill="#00FFFF" transform="translate(0,0)"/>
<path d="" fill="#FFFF00" transform="translate(0,0)"/>
<path d="" fill="#808080" transform="translate(0,0)"/>
<path d="" fill="#FFFF00" transform="translate(0,0)"/>
<path d="" fill="#FFFF00" transform="translate(0,0)"/>
<path d="" fill="#FFFF00" transform="translate(0,0)"/>
<path d="" fill="#AAAA55" transform="translate(0,0)"/>
<path d="" fill="#00FF00" transform="translate(0,0)"/>
<path d="" fill="#808080" transform="translate(0,0)"/>
<path d="" fill="#00FF00" transform="translate(0,0)"/>
<path d="" fill="#00FFFF" transform="translate(0,0)"/>
<path d="" fill="#00FFFF" transform="translate(0,0)"/>
<path d="" fill="#00FFFF" transform="translate(0,0)"/>
<path d="" fill="#00FF00" transform="translate(0,0)"/>
<path d="" fill="#00FFFF" transform="translate(0,0)"/>
<path d="" fill="#00FF00" transform="translate(0,0)"/>
<path d="" fill="#00FFFF" transform="translate(0,0)"/>
<path d="" fill="#00FF00" transform="translate(0,0)"/>
<path d="" fill="#00FF00" transform="translate(0,0)"/>
<path d="" fill="#00FF00" transform="translate(0,0)"/>
<path d="" fill="#00FF00" transform="translate(0,0)"/>
<path d="" fill="#00FF00" transform="translate(0,0)"/>
<path d="" fill="#808080" transform="translate(0,0)"/>
<path d="" fill="#808080" transform="translate(0,0)"/>
<path d="" fill="#00FF00" transform="translate(0,0)"/>
<path d="" fill="#00FFFF" transform="translate(0,0)"/>
<path d="" fill="#00FFFF" transform="translate(0,0)"/>
<path d="" fill="#00FF00" transform="translate(0,0)"/>
<path d="" fill="#00FF00" transform="translate(0,0)"/>
<path d="" fill="#AAAA55" transform="translate(0,0)"/>
<path d="" fill="#808080" transform="translate(0,0)"/>
<path d="" fill="#00FF00" transform="translate(0,0)"/>
<path d="" fill="#00FFFF" transform="translate(0,0)"/>
<path d="" fill="#00FF00" transform="translate(0,0)"/>
<path d="" fill="#00FFFF" transform="translate(0,0)"/>
<path d="" fill="#00FF00" transform="translate(0,0)"/>
<path d="" fill="#808080" transform="translate(0,0)"/>
<path d="" fill="#808080" transform="translate(0,0)"/>
<path d="" fill="#808080" transform="translate(0,0)"/>
<path d="" fill="#00FFFF" transform="translate(0,0)"/>
<path d="" fill="#00FF00" transform="translate(0,0)"/>
<path d="" fill="#00FF00" transform="translate(0,0)"/>
<path d="" fill="#00FFFF" transform="translate(0,0)"/>
<path d="" fill="#00FF00" transform="translate(0,0)"/>
<path d="" fill="#808080" transform="translate(0,0)"/>
<path d="" fill="#FFFF00" transform="translate(0,0)"/>
<path d="" fill="#808080" transform="translate(0,0)"/>
<path d="" fill="#FFFF00" transform="translate(0,0)"/>
<path d="" fill="#FFFF00" transform="translate(0,0)"/>
<path d="" fill="#00FF00" transform="translate(0,0)"/>
<path d="" fill="#008080" transform="translate(0,0)"/>
<path d="" fill="#008080" transform="translate(0,0)"/>
<path d="" fill="#0080FF" transform="translate(0,0)"/>
<path d="" fill="#00FFFF" transform="translate(0,0)"/>
<path d="" fill="#00FFFF" transform="translate(0,0)"/>
<path d="" fill="#0080FF" transform="translate(0,0)"/>
<path d="" fill="#00AAAA" transform="translate(0,0)"/>
<path d="" fill="#0080FF" transform="translate(0,0)"/>
<path d="" fill="#00FFFF" transform="translate(0,0)"/>
<path d="" fill="#00FFFF" transform="translate(0,0)"/>
<path d="" fill="#00FF00" transform="translate(0,0)"/>
<path d="" fill="#FFFF00" transform="translate(0,0)"/>
<path d="" fill="#FFFF00" transform="translate(0,0)"/>
<path d="" fill="#FFFF00" transform="translate(0,0)"/>
<path d="" fill="#FFFF00" transform="translate(0,0)"/>
<path d="" fill="#FFFF00" transform="translate(0,0)"/>
<path d="" fill="#FFFF00" transform="translate(0,0)"/>
<path d="" fill="#FFFF00" transform="translate(0,0)"/>
<path d="" fill="#FFFF00" transform="translate(0,0)"/>
<path d="" fill="#00FF00" transform="translate(0,0)"/>
<path d="" fill="#808080" transform="translate(0,0)"/>
<path d="" fill="#00FF00" transform="translate(0,0)"/>
<path d="" fill="#00FF00" transform="translate(0,0)"/>
</svg>
